<?xml version="1.0" standalone="no"?><!DOCTYPE svg PUBLIC "-//W3C//DTD SVG 1.1//EN" "http://www.w3.org/Graphics/SVG/1.1/DTD/svg11.dtd"><svg t="1755744052920" class="icon" viewBox="0 0 1024 1024" version="1.1" xmlns="http://www.w3.org/2000/svg" p-id="5070" data-spm-anchor-id="a313x.search_index.0.i12.263c3a81WTFpN1" xmlns:xlink="http://www.w3.org/1999/xlink" width="256" height="256"><path d="M1004.28 104.214c18.214-25.694 16.015-51.88-4.615-75.569-21.205-24.35-52.299-28.56-80.915-8.421C900.527 33.047 885.076 50 869.168 65.892 752.43 182.537 635.887 299.38 511.388 424.068 390.032 302.363 275.384 187.331 160.654 72.381c-15.906-15.936-31.047-32.949-48.605-46.86-31.31-24.8-64.121-23.635-87.126 2.07-23.486 26.248-22.428 54.875-2.027 81.951 11.964 15.879 26.92 29.575 41.05 43.736 100.8 100.985 201.808 201.765 302.545 302.812 17.326 17.384 33.69 35.73 52.888 56.175-19.755 20.98-36.277 39.417-53.733 56.923C263.128 671.995 160.312 774.506 57.823 877.345c-14.089 14.135-29.257 28.057-39.773 44.704-16.363 25.906-14.172 52.973 8.038 75.414 22.246 22.47 49.234 24.928 75.222 8.465 16.638-10.538 30.606-25.65 44.727-39.76 274.474-274.242 548.816-548.617 823.075-823.072 12.354-12.362 25.131-24.72 35.169-38.882z" fill="#030bfe" p-id="5071" data-spm-anchor-id="a313x.search_index.0.i1.263c3a81WTFpN1" class="selected"></path><path d="M851.284 763.069c-38.869-38.791-76.182-79.36-117.285-115.63-38.354-33.843-92.127-22.562-101.843 21.847-4.491 20.534 3.275 51.952 17.537 67.038 82.29 87.023 168.037 170.788 253.087 255.178 8.61 8.546 19.54 16.24 30.842 20.312 41.2 14.85 83.765-16.5 81.778-71.741-6.58-9.242-17.277-28.73-32.118-44.256-43.103-45.107-87.824-88.668-131.998-132.748z" fill="#cb02ff" p-id="5072" data-spm-anchor-id="a313x.search_index.0.i0.263c3a81WTFpN1" class=""></path></svg>