<?xml version="1.0" standalone="no"?><!DOCTYPE svg PUBLIC "-//W3C//DTD SVG 1.1//EN" "http://www.w3.org/Graphics/SVG/1.1/DTD/svg11.dtd"><svg t="1755735458389" class="icon" viewBox="0 0 2048 1024" version="1.1" xmlns="http://www.w3.org/2000/svg" p-id="11486" xmlns:xlink="http://www.w3.org/1999/xlink" width="400" height="200"><path d="M860.733 0.655h90.583V867.79h-90.583z m-226.519 0h135.814V867.79H634.214z m-90.583 0h45.23V867.79h-45.23z m-317.112 0h45.23V867.79h-45.23z m90.583 0h135.946V867.79H317.102z m1268.296 0h135.946V867.79h-135.946z m-271.75 0h135.947V867.79h-135.946z m181.167 0h45.363V867.79h-45.363zM0 0.655h135.936v1021.983H0z m1766.697 0h45.23V867.79h-45.23z m135.813 0h135.936v1021.983H1902.51z m-724.797 0h90.716V867.79h-90.716z m-135.813 0h45.23V867.79h-45.23z m271.749 912.487h498.278v109.496h-498.278z m-226.52 0h135.937v109.496H1087.13z m-860.61 0h135.813v109.496H226.52z m226.53 0h543.498v109.496H453.048z" p-id="11487"></path></svg>