<?xml version="1.0" standalone="no"?><!DOCTYPE svg PUBLIC "-//W3C//DTD SVG 1.1//EN" "http://www.w3.org/Graphics/SVG/1.1/DTD/svg11.dtd"><svg t="1755918719204" class="icon" viewBox="0 0 1024 1024" version="1.1" xmlns="http://www.w3.org/2000/svg" p-id="34771" xmlns:xlink="http://www.w3.org/1999/xlink" width="16" height="16"><path d="M102.4 0h819.2Q1024 0 1024 102.4v819.2q0 102.4-102.4 102.4H102.4Q0 1024 0 921.6V102.4Q0 0 102.4 0z" fill="#23C5A9" p-id="34772"></path><path d="M116.163 465.92a400.957 400.957 0 1 0 801.914 0 400.957 400.957 0 1 0-801.914 0z" fill="#D2D1D1" p-id="34773"></path><path d="M116.163 506.88a400.957 400.957 0 1 0 801.914 0 400.957 400.957 0 1 0-801.914 0z" fill="#DBEBE8" p-id="34774"></path><path d="M102.4 0h819.2A102.4 102.4 0 0 1 1024 102.4V512H0V102.4A102.4 102.4 0 0 1 102.4 0z" opacity=".2" p-id="34775"></path><path d="M501.76 266.24h20.48v266.24h-20.48z" fill="#603115" p-id="34776"></path><path d="M494.141 512L512 527.81 304.579 757.76l-17.859-15.81z" fill="#F67C96" p-id="34777"></path><path d="M501.76 501.76H768v20.48H501.76z" fill="#603115" p-id="34778"></path><path d="M471.04 512a40.96 40.96 0 1 0 81.92 0 40.96 40.96 0 1 0-81.92 0z" fill="#FFFFFF" p-id="34779"></path></svg>