<?xml version="1.0" standalone="no"?><!DOCTYPE svg PUBLIC "-//W3C//DTD SVG 1.1//EN" "http://www.w3.org/Graphics/SVG/1.1/DTD/svg11.dtd"><svg t="1755741628143" class="icon" viewBox="0 0 1280 1024" version="1.1" xmlns="http://www.w3.org/2000/svg" p-id="16705" xmlns:xlink="http://www.w3.org/1999/xlink" width="320" height="256"><path d="M763.733333 477.866667c-21.333333 0-38.4 8.533333-46.933333 21.333333-8.533333 12.8-12.8 29.866667-12.8 55.466667s4.266667 42.666667 12.8 55.466666c8.533333 17.066667 25.6 21.333333 46.933333 21.333334 17.066667 0 34.133333-8.533333 42.666667-21.333334 8.533333-12.8 12.8-29.866667 12.8-51.2V554.666667c0-21.333333-4.266667-42.666667-17.066667-55.466667-8.533333-17.066667-21.333333-21.333333-38.4-21.333333zM507.733333 477.866667c-21.333333 0-34.133333 8.533333-46.933333 25.6-8.533333 12.8-12.8 29.866667-12.8 51.2s4.266667 38.4 12.8 51.2c12.8 17.066667 25.6 25.6 46.933333 25.6 21.333333 0 34.133333-8.533333 46.933334-25.6 8.533333-12.8 12.8-29.866667 12.8-51.2s-4.266667-38.4-12.8-51.2c-8.533333-17.066667-25.6-25.6-46.933334-25.6zM1011.2 477.866667c-17.066667 0-29.866667 4.266667-38.4 12.8-8.533333 8.533333-17.066667 21.333333-17.066667 38.4H1066.666667c-4.266667-34.133333-21.333333-51.2-55.466667-51.2z" p-id="16706" fill="#2b11e6"></path><path d="M1262.933333 38.4c-12.8-12.8-29.866667-17.066667-46.933333-17.066667H768c0 34.133333-12.8 68.266667-38.4 89.6-25.6 25.6-55.466667 38.4-89.6 38.4s-68.266667-12.8-89.6-38.4c-25.6-21.333333-38.4-55.466667-38.4-89.6H64C46.933333 21.333333 29.866667 29.866667 17.066667 38.4S0 68.266667 0 85.333333v853.333334c0 17.066667 8.533333 34.133333 17.066667 46.933333 12.8 12.8 29.866667 17.066667 46.933333 17.066667H512c0-34.133333 12.8-68.266667 38.4-89.6 25.6-25.6 55.466667-38.4 89.6-38.4s68.266667 12.8 89.6 38.4c25.6 25.6 38.4 55.466667 38.4 89.6h448c17.066667 0 34.133333-8.533333 46.933333-17.066667 12.8-12.8 17.066667-29.866667 17.066667-46.933333V85.333333c0-17.066667-8.533333-34.133333-17.066667-46.933333zM332.8 648.533333c-17.066667 12.8-38.4 21.333333-68.266667 21.333334-34.133333 0-59.733333-12.8-81.066666-34.133334-17.066667-21.333333-25.6-46.933333-25.6-81.066666 0-34.133333 8.533333-59.733333 25.6-81.066667 21.333333-21.333333 46.933333-34.133333 81.066666-34.133333 29.866667 0 51.2 8.533333 68.266667 21.333333 17.066667 12.8 29.866667 34.133333 34.133333 64H320c-4.266667-12.8-8.533333-25.6-17.066667-29.866667-8.533333-8.533333-21.333333-8.533333-34.133333-8.533333-17.066667 0-34.133333 8.533333-42.666667 21.333333-12.8 4.266667-17.066667 21.333333-17.066666 46.933334 0 25.6 4.266667 42.666667 17.066666 55.466666 8.533333 12.8 21.333333 21.333333 42.666667 21.333334 34.133333 0 51.2-17.066667 55.466667-46.933334h46.933333c-8.533333 25.6-21.333333 51.2-38.4 64z m256-12.8c-21.333333 21.333333-46.933333 34.133333-81.066667 34.133334-34.133333 0-59.733333-12.8-81.066666-34.133334s-29.866667-46.933333-29.866667-81.066666c0-34.133333 8.533333-59.733333 29.866667-85.333334 21.333333-21.333333 46.933333-34.133333 81.066666-34.133333 34.133333 0 59.733333 8.533333 81.066667 34.133333 21.333333 21.333333 29.866667 51.2 29.866667 85.333334s-8.533333 59.733333-29.866667 81.066666z m277.333333 29.866667h-46.933333V640c-17.066667 21.333333-38.4 29.866667-68.266667 29.866667-34.133333 0-59.733333-12.8-76.8-34.133334-17.066667-21.333333-25.6-51.2-25.6-81.066666 0-34.133333 8.533333-59.733333 25.6-81.066667 17.066667-21.333333 42.666667-34.133333 76.8-34.133333 25.6 0 46.933333 12.8 64 38.4V354.133333h46.933334v311.466667z m106.666667-51.2c8.533333 8.533333 21.333333 17.066667 38.4 17.066667s25.6-4.266667 38.4-8.533334c8.533333-4.266667 12.8-12.8 21.333333-25.6h46.933334c-4.266667 21.333333-17.066667 38.4-29.866667 51.2-21.333333 17.066667-42.666667 25.6-72.533333 25.6-34.133333 0-59.733333-8.533333-76.8-29.866666-21.333333-21.333333-29.866667-51.2-29.866667-85.333334s8.533333-59.733333 29.866667-81.066666c17.066667-21.333333 42.666667-34.133333 76.8-34.133334s64 12.8 85.333333 38.4c17.066667 21.333333 25.6 51.2 25.6 93.866667h-166.4c0 12.8 4.266667 25.6 12.8 38.4z" p-id="16707" fill="#2b11e6"></path></svg>