<?xml version="1.0" standalone="no"?><!DOCTYPE svg PUBLIC "-//W3C//DTD SVG 1.1//EN" "http://www.w3.org/Graphics/SVG/1.1/DTD/svg11.dtd"><svg t="1755742025400" class="icon" viewBox="0 0 1024 1024" version="1.1" xmlns="http://www.w3.org/2000/svg" p-id="22861" xmlns:xlink="http://www.w3.org/1999/xlink" width="256" height="256"><path d="M977.501091 319.767273c0-176.314182-145.175273-319.767273-323.630546-319.767273C496.733091-0.186182 362.263273 111.522909 335.127273 264.750545 168.866909 309.248 46.545455 459.310545 46.545455 637.672727 46.545455 850.990545 221.649455 1024 437.620364 1024c215.970909 0 391.028364-173.009455 391.028363-386.327273a381.207273 381.207273 0 0 0-2.885818-47.010909 319.069091 319.069091 0 0 0 151.738182-270.894545zM310.877091 764.276364a36.724364 36.724364 0 0 1-51.432727-3.258182v-0.093091l-86.109091-97.186909a35.467636 35.467636 0 0 1 0-47.662546l87.645091-97.559272a37.003636 37.003636 0 0 1 49.477818-0.837819 36.119273 36.119273 0 0 1 5.306182 48.733091l-66.420364 73.774546 65.163636 73.076363a35.979636 35.979636 0 0 1-3.630545 51.013819z m231.796364-276.340364l-136.61091 330.752a36.864 36.864 0 0 1-47.70909 19.828364 36.212364 36.212364 0 0 1-19.828364-19.409455 35.653818 35.653818 0 0 1-0.139636-27.554909l0.046545-0.046545 136.610909-330.752a36.165818 36.165818 0 0 1 19.549091-19.642182 36.677818 36.677818 0 0 1 27.787636-0.232728h0.046546c18.664727 7.540364 27.694545 28.532364 20.247273 47.057455z m164.770909 175.662545v0.093091l-86.109091 97.140364a36.724364 36.724364 0 0 1-51.432728 3.258182 36.119273 36.119273 0 0 1-3.67709-51.060364l64.930909-73.216-66.141091-73.867636a36.072727 36.072727 0 0 1-1.489455-51.293091 37.003636 37.003636 0 0 1 56.32 3.397818l87.598546 97.605818c12.101818 13.730909 12.101818 34.210909 0 47.941818z m93.044363-174.778181c-44.497455-155.741091-189.719273-261.957818-353.140363-258.280728 42.775273-96.674909 148.107636-150.481455 252.462545-128.930909 104.401455 21.597091 179.2 112.593455 179.386182 218.158546a221.789091 221.789091 0 0 1-78.708364 169.053091z" fill="#4f09ee" p-id="22862"></path></svg>