<?xml version="1.0" standalone="no"?><!DOCTYPE svg PUBLIC "-//W3C//DTD SVG 1.1//EN" "http://www.w3.org/Graphics/SVG/1.1/DTD/svg11.dtd"><svg t="1755702697337" class="icon" viewBox="0 0 1024 1024" version="1.1" xmlns="http://www.w3.org/2000/svg" p-id="7738" xmlns:xlink="http://www.w3.org/1999/xlink" width="200" height="200"><path d="M512.335634 0.229433C138.298687 0.229433 0 327.266116 0 510.518018S133.05824 1023.754354 501.527211 1023.754354c0 0 91.544069 1.719522 91.544069-80.981292s-40.940997-56.171048-40.940997-115.535493a78.688596 78.688596 0 0 1 60.838321-85.976093c19.73356 0 150.007812 9.907721 222.473377-18.341567a295.921525 295.921525 0 0 0 189.31117-268.900467A499.480161 499.480161 0 0 0 512.335634 0.229433zM199.955829 512.23754A90.807131 90.807131 0 1 1 288.71591 419.465241v3.520926a89.251373 89.251373 0 0 1-88.760081 89.251373z m168.922552-220.590091h-1.146348a77.706012 77.706012 0 1 1 1.064466 0z m284.458046 0a90.807131 90.807131 0 1 1 88.760081-92.772299v3.439044a89.087609 89.087609 0 0 1-88.760081 89.333255z" fill="#2E6DB6" p-id="7739"></path><path d="M822.422744 512.23754a88.923845 88.923845 0 1 1 63.049135-26.202238 88.923845 88.923845 0 0 1-63.049135 26.202238z" fill="#F18823" p-id="7740"></path></svg>