<?xml version="1.0" standalone="no"?><!DOCTYPE svg PUBLIC "-//W3C//DTD SVG 1.1//EN" "http://www.w3.org/Graphics/SVG/1.1/DTD/svg11.dtd"><svg t="1755851855517" class="icon" viewBox="0 0 1024 1024" version="1.1" xmlns="http://www.w3.org/2000/svg" p-id="26834" xmlns:xlink="http://www.w3.org/1999/xlink" width="256" height="256"><path d="M1012.519327 620.683198c14.397291-13.49746 15.097159-36.093208 1.599699-50.490499-5.89889-6.298815-13.997366-10.298062-22.595748-11.097911L786.861792 539.8984c-12.997554-1.299755-24.295428-9.598194-29.294487-21.695917l-72.986265-177.466604c-7.198645-17.896632-27.594807-26.594995-45.491439-19.39635-8.798344 3.599323-15.897008 10.598006-19.39635 19.39635L546.906948 518.202483c-4.799097 12.197705-16.196952 20.596124-29.194506 21.695917l-204.461524 19.39635c-19.39635 1.899643-33.593678 19.096406-31.694036 38.492756 0.899831 8.998307 5.09904 17.296745 11.897762 23.195635l153.971025 135.574487c9.798156 8.598382 14.197328 21.89588 11.197892 34.59349l-46.291288 189.164403c-4.499153 18.996425 7.298627 38.092832 26.395033 42.492003 8.798344 2.099605 17.996613 0.699868 25.795145-3.799285l160.169859-94.282257c59.88873-47.491063 58.389012-105.280188 47.691025-124.076651-12.297686-21.295992-28.794581-30.39428-44.391646-22.395786-15.497084 7.998495-16.496896 15.397103-16.496895 15.397103 13.797404-8.39842 31.794017-3.899266 40.092455 9.898137 8.39842 13.797404 3.899266 31.794017-9.898138 40.092456-0.499906 0.299944-0.899831 0.599887-1.399736 0.799849 0 0-33.893622 21.09603-56.689332-19.196388-22.79571-40.292418 15.697046-70.086811 23.895503-74.685945 34.693471-17.296745 76.885531-3.199398 94.182277 31.494073 0.299944 0.499906 0.499906 1.099793 0.799849 1.699681 23.395597 41.292229 13.797404 94.982126-23.895503 139.973659l162.469426 95.382051c16.796839 9.898137 38.392775 4.299191 48.290912-12.497649 4.699116-7.898514 5.998871-17.296745 3.899266-26.19507l-45.691401-189.664308c-2.999436-12.697611 1.299755-25.995108 11.097911-34.59349l153.871044-135.474506z" fill="#FED150" p-id="26835"></path><path d="M600.296901 640.979378V102.380734C600.296901 45.791383 554.405537 0 497.916167 0H102.390599C45.801248 0 0.009865 45.891364 0.009865 102.380734v538.598644c0 56.589351 45.891364 102.380734 102.380734 102.380734H497.916167c56.48937 0 102.380734-45.791383 102.380734-102.380734z m-72.886284-476.410347c0 28.794581-23.295616 52.090197-52.090198 52.090197s-52.090197-23.295616-52.090197-52.090197 23.295616-52.090197 52.090197-52.090198 52.090197 23.295616 52.090198 52.090198zM92.39248 691.76982c-5.199022-6.698739-3.799285-16.396914 2.899454-21.495955L246.963392 555.395484c0.499906-0.299944 41.592173-32.393904 37.692907-71.286585-3.599323-31.694036-37.292982-62.788184-97.581637-89.883086-63.987959-28.794581-97.381674-56.989276-105.280188-88.683311-8.698363-35.993227 15.697046-66.987394 41.592174-99.781223l3.299379-4.19921c30.094337-38.392775 23.295616-56.789313-49.190743-130.875371-2.999436-2.999436-4.399172-6.898702-4.399173-10.697987 0-3.999247 1.499718-7.998495 4.599135-10.99793 6.098852-5.89889 15.797027-5.798909 21.695917 0.199962 65.887601 67.187356 100.781035 108.279624 51.390329 171.167789l-3.299379 4.19921c-22.095842 28.094713-41.192248 52.29016-35.993227 73.486171 5.199022 21.196011 34.793452 43.991721 87.983443 67.987206 71.886472 32.393904 110.779153 70.88666 115.578251 114.678419 5.998871 56.389388-47.391082 97.381674-49.69065 98.981374L113.888435 694.569293c-6.798721 5.199022-16.396914 3.899266-21.495955-2.799473z" p-id="26836"></path></svg>