<?xml version="1.0" standalone="no"?><!DOCTYPE svg PUBLIC "-//W3C//DTD SVG 1.1//EN" "http://www.w3.org/Graphics/SVG/1.1/DTD/svg11.dtd"><svg t="1755735676754" class="icon" viewBox="0 0 1024 1024" version="1.1" xmlns="http://www.w3.org/2000/svg" p-id="14409" xmlns:xlink="http://www.w3.org/1999/xlink" width="200" height="200"><path d="M185.285486 1024h224.577828c20.011886 0 36.220343-16.384 36.220343-36.571429s-16.208457-36.571429-36.220343-36.571428H185.285486a54.652343 54.652343 0 0 1-54.330515-54.857143V128c0-30.251886 24.3712-54.857143 54.330515-54.857143h559.133257c29.959314 0 54.359771 24.605257 54.359771 54.857143v276.801829c0 20.187429 16.208457 36.571429 36.220343 36.571428 19.982629 0 36.220343-16.384 36.220343-36.571428V128C871.189943 57.402514 814.343314 0 744.418743 0H185.314743C115.360914 0 58.514286 57.402514 58.514286 128v768C58.514286 966.597486 115.390171 1024 185.285486 1024zM259.978971 182.272h409.746286c20.011886 0 36.220343 16.384 36.220343 36.571429s-16.208457 36.571429-36.220343 36.571428H259.978971c-19.982629 0-36.220343-16.384-36.220342-36.571428s16.237714-36.571429 36.220342-36.571429z m0 202.576457h298.569143c19.982629 0 36.220343 16.384 36.220343 36.571429s-16.237714 36.571429-36.220343 36.571428H259.978971c-19.982629 0-36.220343-16.384-36.220342-36.571428s16.237714-36.571429 36.220342-36.571429zM549.449143 555.885714h364.075886c28.554971 0 51.989943 23.405714 51.989942 52.048457V971.922286C965.485714 1000.594286 942.08 1024 913.495771 1024H549.419886C520.777143 1024 497.371429 1000.594286 497.371429 971.951543V607.963429c0-28.672 23.405714-52.048457 52.048457-52.048458z m-289.440914 31.5392h102.721828c20.011886 0 36.220343 16.384 36.220343 36.571429s-16.208457 36.571429-36.220343 36.571428h-102.692571c-20.011886 0-36.2496-16.384-36.2496-36.571428s16.237714-36.571429 36.220343-36.571429zM731.428571 971.951543h182.0672V607.963429H731.428571v51.960685c-72.791771 0-130.018743 57.197714-130.018742 130.048A128.789943 128.789943 0 0 0 731.428571 919.990857v51.960686z m0-51.960686A128.8192 128.8192 0 0 0 861.476571 789.942857 128.789943 128.789943 0 0 0 731.428571 659.894857v260.096z" fill="#64AEF3" p-id="14410"></path></svg>