<?xml version="1.0" standalone="no"?><!DOCTYPE svg PUBLIC "-//W3C//DTD SVG 1.1//EN" "http://www.w3.org/Graphics/SVG/1.1/DTD/svg11.dtd"><svg t="1755738746340" class="icon" viewBox="0 0 1024 1024" version="1.1" xmlns="http://www.w3.org/2000/svg" p-id="2329" xmlns:xlink="http://www.w3.org/1999/xlink" width="256" height="256"><path d="M933.64224 878.91968l-151.552-151.79776c115.99872-162.52928 100.5568-390.10304-44.8512-537.23136-162.4064-160.9728-427.008-160.9728-589.4144 1.55648s-162.4064 427.33568 0 589.86496a415.04768 415.04768 0 0 0 295.44448 122.30656c86.50752 0 170.88512-27.0336 241.33632-77.37344l151.552 151.71584c13.96736 13.9264 30.96576 20.0704 49.52064 20.0704 18.55488 0 35.6352-6.144 49.52064-20.0704 26.624-27.8528 25.92768-72.00768-1.55648-99.04128zM206.60224 722.5344c-129.8432-130.00704-129.8432-342.17984 0-472.14592a331.44832 331.44832 0 0 1 235.19232-97.4848c85.07392 0 170.14784 32.52224 235.1104 97.4848 129.8432 129.96608 129.8432 342.13888 0 472.14592a331.85792 331.85792 0 0 1-235.1104 97.56672 332.5952 332.5952 0 0 1-235.19232-97.56672z" fill="#D81E06" p-id="2330"></path><path d="M297.45152 348.61056a23.01952 23.01952 0 0 0-12.16512-4.01408H366.592c5.85728 0 10.0352 1.47456 12.12416 4.01408a30.59712 30.59712 0 0 1 1.55648 11.63264l-72.74496 292.37248v9.09312c0 0.53248 0.98304 2.00704 2.6624 4.01408a10.11712 10.11712 0 0 0 4.17792 4.01408 10.32192 10.32192 0 0 0 5.85728 2.00704H240.47616a15.31904 15.31904 0 0 1-11.01824-4.01408l-3.60448-3.4816C225.28 663.71584 225.28 662.77376 225.28 661.7088c0-0.53248 0.57344-3.072 0.98304-7.49568l73.27744-293.2736a34.93888 34.93888 0 0 0 0.98304-5.65248c-0.98304-3.72736-1.55648-5.61152-3.072-6.67648z m145.408 4.01408a14.7456 14.7456 0 0 0-5.85728-6.02112 18.92352 18.92352 0 0 0-8.35584-2.53952h176.00512c21.0944 0 38.912 4.54656 54.8864 13.63968 10.97728 8.56064 16.30208 25.8048 16.30208 50.54464 0 12.57472-1.51552 25.8048-4.17792 39.85408-3.23584 14.21312-7.3728 28.2624-12.6976 41.3696-5.3248 13.1072-12.16512 24.69888-19.53792 34.2016-7.41376 10.15808-15.23712 17.12128-23.7568 21.13536-5.3248 3.072-10.60864 5.61152-16.30208 8.02816a111.2064 111.2064 0 0 1-19.00544 5.07904 176.9472 176.9472 0 0 1-24.28928 2.048h-81.63328l14.7456-54.4768h49.9712c12.73856-1.47456 22.65088-5.61152 30.59712-12.57472 4.75136-4.01408 8.92928-10.15808 12.6976-18.71872 3.23584-8.56064 5.85728-18.18624 7.82336-28.22144 1.55648-10.15808 2.6624-19.6608 2.6624-27.27936 0-9.6256-0.98304-15.11424-3.23584-17.65376a31.04768 31.04768 0 0 0-21.05344-7.08608h-48.98816l-67.9936 257.47456c0 5.07904 1.55648 10.15808 4.21888 14.5408 1.51552 2.048 6.26688 4.05504 14.21312 5.12H388.87424c-6.84032-1.47456-11.0592-3.11296-13.1072-5.12-2.6624-3.97312-4.21888-7.04512-4.21888-9.6256 0-0.90112 0.57344-2.53952 0.98304-5.61152l73.3184-284.18048c0.94208-2.58048 0.94208-4.54656 0.94208-5.65248 0-1.47456 0-2.53952-0.57344-3.072-0.53248-0.53248-0.98304-1.47456-2.048-3.072a11.18208 11.18208 0 0 0-1.26976-2.12992z" fill="#D81E06" p-id="2331"></path></svg>