<?xml version="1.0" standalone="no"?><!DOCTYPE svg PUBLIC "-//W3C//DTD SVG 1.1//EN" "http://www.w3.org/Graphics/SVG/1.1/DTD/svg11.dtd"><svg t="1755660291356" class="icon" viewBox="0 0 1024 1024" version="1.1" xmlns="http://www.w3.org/2000/svg" p-id="5118" xmlns:xlink="http://www.w3.org/1999/xlink" width="256" height="256"><path d="M447.634286 437.138286c16.64 0 29.037714-0.877714 37.266285-2.633143 16.822857-4.022857 29.44-15.872 37.888-35.510857 6.034286-13.897143 9.069714-29.622857 9.069715-47.250286 0-15.908571-2.267429-30.793143-6.802286-44.653714-5.851429-17.334857-16.420571-29.476571-31.744-36.425143-8.630857-4.022857-21.796571-6.034286-39.497143-6.034286h-34.669714c-12.726857 0-21.796571-1.755429-27.172572-5.229714-8.228571-4.608-12.324571-13.860571-12.324571-27.721143 0-16.457143 4.864-26.331429 14.592-29.476571 4.754286-1.462857 14.336-2.304 28.818286-2.596572h96.804571v-51.565714h-107.154286c-12.763429 0-22.381714 0.402286-28.854857 1.28-19.017143 2.889143-32.804571 12.434286-41.435428 28.598857A116.955429 116.955429 0 0 0 329.142857 233.398857c0 13.019429 1.901714 25.161143 5.668572 36.425143 3.766857 11.264 8.996571 20.662857 15.725714 28.16 10.752 11.849143 28.379429 17.773714 52.772571 17.773714h40.118857c11.008 0 19.017143 1.865143 23.990858 5.632 8.850286 6.363429 13.275429 16.603429 13.275428 30.793143 0 12.105143-3.803429 21.211429-11.337143 27.282286-5.193143 4.022857-15.652571 6.070857-31.451428 6.070857h-98.742857v51.565714h108.507428z m215.990857 1.718857c18.578286 0 34.962286-3.766857 49.225143-11.264 19.2-10.422857 33.462857-28.452571 42.752-54.198857 7.314286-21.650286 10.971429-47.213714 10.971428-76.690286 0-29.184-2.998857-54.637714-9.033143-76.288-7.789714-27.757714-21.284571-47.542857-40.484571-59.392-16.420571-9.837714-35.401143-14.738286-56.978286-14.738286-33.28 0.292571-58.514286 10.24-75.776 29.915429-20.48 23.405714-30.756571 62.683429-30.756571 117.869714 0 30.939429 3.986286 57.234286 11.958857 78.921143 8.009143 21.650286 19.565714 37.558857 34.669714 47.652571 17.92 12.141714 39.058286 18.212571 63.451429 18.212572z m-2.925714-48.530286c-19.638857 0-34.011429-7.826286-43.044572-23.405714-9.069714-15.908571-13.604571-40.740571-13.604571-74.569143 0-32.073143 3.657143-55.332571 11.008-69.778286 9.069714-18.505143 24.173714-27.757714 45.348571-27.757714 21.357714 0.292571 36.242286 9.837714 44.653714 28.635429 7.350857 15.872 11.008 38.985143 11.008 69.339428 0 33.243429-4.461714 57.782857-13.421714 73.691429-8.96 15.872-22.930286 23.844571-41.947428 23.844571z m182.308571 46.811429V225.170286l88.064 211.968H987.428571V148.004571h-43.702857v215.405715l-85.833143-215.405715h-58.916571v289.133715h44.032z" fill="#03294C" p-id="5119"></path><path d="M329.142857 621.714286h603.428572l54.857142 256H329.142857z" fill="#D1EDBC" p-id="5120"></path><path d="M329.142857 493.714286h603.428572A54.857143 54.857143 0 0 1 987.428571 548.571429v36.571428a54.857143 54.857143 0 0 1-54.857142 54.857143H329.142857v-146.285714z" fill="#67C621" p-id="5121"></path><path d="M62.171429 877.714286c41.691429 0 82.944-1.974857 104.009142-5.924572 43.885714-10.532571 74.166857-34.450286 90.843429-71.753143 6.582857-14.043429 10.971429-28.964571 13.165714-44.763428 2.194286-15.798857 3.291429-39.058286 3.291429-69.778286V146.066286H180.662857v539.428571c0 30.281143-1.865143 52.443429-5.595428 66.486857-3.730286 14.043429-10.422857 24.795429-20.077715 32.256-7.021714 6.144-17.225143 10.203429-30.610285 12.178286-13.385143 1.974857-34.121143 2.962286-62.208 2.962286V877.714286z" fill="#03294C" p-id="5122"></path><path d="M457.142857 731.428571v146.285715h-36.571428v-146.285715zM566.857143 731.428571v146.285715h-36.571429v-146.285715zM676.571429 731.428571v146.285715h-36.571429v-146.285715zM786.285714 731.428571v146.285715h-36.571428v-146.285715z" fill="#67C621" p-id="5123"></path></svg>