<?xml version="1.0" standalone="no"?><!DOCTYPE svg PUBLIC "-//W3C//DTD SVG 1.1//EN" "http://www.w3.org/Graphics/SVG/1.1/DTD/svg11.dtd"><svg t="1755918613442" class="icon" viewBox="0 0 1024 1024" version="1.1" xmlns="http://www.w3.org/2000/svg" p-id="20399" xmlns:xlink="http://www.w3.org/1999/xlink" width="16" height="16"><path d="M0 0h1024v1024H0V0z" fill="#202425" opacity=".01" p-id="20400"></path><path d="M170.666667 34.133333a34.133333 34.133333 0 0 0-34.133334 34.133334v102.4H102.4a34.133333 34.133333 0 0 0 0 68.266666h34.133333v136.533334H102.4a34.133333 34.133333 0 1 0 0 68.266666h34.133333v136.533334H102.4a34.133333 34.133333 0 1 0 0 68.266666h34.133333v136.533334H102.4a34.133333 34.133333 0 1 0 0 68.266666h34.133333v102.4a34.133333 34.133333 0 0 0 34.133334 34.133334h477.866666a34.133333 34.133333 0 0 0 34.133334-34.133334V68.266667a34.133333 34.133333 0 0 0-34.133334-34.133334H170.666667z" fill="#FFAA44" p-id="20401"></path><path d="M273.066667 68.266667a34.133333 34.133333 0 0 1 34.133333-34.133334h614.4a34.133333 34.133333 0 0 1 34.133333 34.133334v887.466666a34.133333 34.133333 0 0 1-34.133333 34.133334H307.2a34.133333 34.133333 0 0 1-34.133333-34.133334V68.266667z" fill="#11AA66" p-id="20402"></path><path d="M409.6 204.8a34.133333 34.133333 0 0 1 34.133333-34.133333h341.333334a34.133333 34.133333 0 1 1 0 68.266666H443.733333a34.133333 34.133333 0 0 1-34.133333-34.133333z m0 204.8a34.133333 34.133333 0 0 1 34.133333-34.133333h341.333334a34.133333 34.133333 0 1 1 0 68.266666H443.733333a34.133333 34.133333 0 0 1-34.133333-34.133333z m0 204.8a34.133333 34.133333 0 0 1 34.133333-34.133333h204.8a34.133333 34.133333 0 1 1 0 68.266666h-204.8a34.133333 34.133333 0 0 1-34.133333-34.133333z" fill="#FFFFFF" p-id="20403"></path></svg>