<?xml version="1.0" standalone="no"?><!DOCTYPE svg PUBLIC "-//W3C//DTD SVG 1.1//EN" "http://www.w3.org/Graphics/SVG/1.1/DTD/svg11.dtd"><svg t="1755705477306" class="icon" viewBox="0 0 1042 1024" version="1.1" xmlns="http://www.w3.org/2000/svg" p-id="7314" xmlns:xlink="http://www.w3.org/1999/xlink" width="203.515625" height="200"><path d="M38.4 268.8c20.114286 0 36.571429-16.457143 36.571429-36.571429V73.142857h206.628571c20.114286 0 36.571429-16.457143 36.571429-36.571428s-16.457143-36.571429-36.571429-36.571429H74.971429c-40.228571 0-73.142857 32.914286-73.142858 73.142857v159.085714c0 20.114286 16.457143 36.571429 36.571429 36.571429M991.085714 268.8c20.114286 0 36.571429-16.457143 36.571429-36.571429V73.142857c0-40.228571-32.914286-73.142857-73.142857-73.142857H749.714286c-20.114286 0-36.571429 16.457143-36.571429 36.571429s16.457143 36.571429 36.571429 36.571428h204.8v159.085714c0 20.114286 16.457143 36.571429 36.571428 36.571429M991.085714 749.714286c20.114286 0 36.571429 16.457143 36.571429 36.571428v159.085715c0 40.228571-32.914286 73.142857-73.142857 73.142857H749.714286c-20.114286 0-36.571429-16.457143-36.571429-36.571429s16.457143-36.571429 36.571429-36.571428h204.8V786.285714c0-20.114286 16.457143-36.571429 36.571428-36.571428M36.571429 749.714286c20.114286 0 36.571429 16.457143 36.571428 36.571428v159.085715h206.628572c20.114286 0 36.571429 16.457143 36.571428 36.571428s-16.457143 36.571429-36.571428 36.571429H73.142857c-40.228571 0-73.142857-32.914286-73.142857-73.142857V786.285714c0-20.114286 16.457143-36.571429 36.571429-36.571428" fill="#1296db" p-id="7315"></path><path d="M164.571429 334.043429V859.428571h713.142857V485.522286l-201.472 75.574857-146.834286-69.814857-128.420571-0.018286L164.571429 334.043429zM237.714286 786.285714V470.528l141.202285 93.897143 133.979429-0.018286 159.963429 76.068572L804.571429 591.085714V786.285714H237.714286zM804.571429 173.714286v73.142857H493.714286v-73.142857z" fill="#1296db" p-id="7316"></path><path d="M617.142857 200.832l73.142857 0.621714-2.066285 250.203429-73.142858-0.603429z" fill="#1296db" p-id="7317"></path></svg>