<?xml version="1.0" standalone="no"?><!DOCTYPE svg PUBLIC "-//W3C//DTD SVG 1.1//EN" "http://www.w3.org/Graphics/SVG/1.1/DTD/svg11.dtd"><svg t="1755847630691" class="icon" viewBox="0 0 1024 1024" version="1.1" xmlns="http://www.w3.org/2000/svg" p-id="14863" xmlns:xlink="http://www.w3.org/1999/xlink" width="256" height="256"><path d="M213.48 64.22h597.04c99.5 0 149.26 49.75 149.26 149.26v597.04c0 99.5-49.75 149.26-149.26 149.26H213.48c-99.51 0-149.26-49.75-149.26-149.26V213.48c0-99.5 49.76-149.26 149.26-149.26z m0 0" fill="#4E6EF2" p-id="14864"></path><path d="M493.89 668.69c7.59 0 13.74 6.06 13.74 13.55 0 7.48-6.15 13.54-13.74 13.54H342.76c-30.35 0-54.96-24.26-54.96-54.18V370.68c0-29.93 24.61-54.18 54.96-54.18h302.26c30.35 0 54.95 24.26 54.95 54.18v146.3c0 8.96-7.36 16.23-16.46 16.23-4.05 0-26.06-21.73-66.03-65.19L480.62 582.08c-16.33 13.46-40.16 12.49-55.35-2.25l-29.01-28.17-80.99 69.03v20.92c0 14.96 12.3 27.09 27.48 27.09h151.14z" fill="#FFFFFF" p-id="14865"></path><path d="M370.23 438.41c0 22.44 18.46 40.64 41.22 40.64 22.76 0 41.22-18.19 41.22-40.64s-18.46-40.64-41.22-40.64c-22.76 0-41.21 18.2-41.22 40.64zM547.71 625.7c-4.3 0.03-8.41-1.76-11.3-4.94a17.518 17.518 0 0 1-5.32-12.2c-0.15-4.62 1.52-9.1 4.65-12.5 21.95-24.7 75.16-60.68 119.74-19.07 6.58 7.25 15.8 11.12 25.27 10.59 12.71-3.14 23.72-11.52 30.6-23.3 5.15-8.19 15.57-10.4 23.29-4.94 7.71 5.46 9.8 16.52 4.65 24.71-12.37 19.91-31.8 33.67-53.87 38.13-19.09 2.06-38.08-4.91-51.89-19.07-31.93-29.66-71.93 14.11-73.77 16.23-2.76 4.15-7.28 6.53-12.05 6.36z" fill="#B9C8F9" p-id="14866"></path><path d="M547.71 695.06c-4.3 0.03-8.41-1.76-11.3-4.93a17.518 17.518 0 0 1-5.32-12.2c-0.15-4.62 1.52-9.11 4.65-12.51 21.95-24.71 75.16-60.69 119.74-19.07 6.58 7.25 15.8 11.12 25.27 10.59 12.67-3.23 23.65-11.59 30.6-23.29 5.15-8.19 15.57-10.4 23.29-4.95 7.71 5.46 9.8 16.52 4.65 24.72-12.36 19.91-31.8 33.67-53.87 38.13-19.14 2.42-38.26-4.61-51.89-19.07-31.93-29.66-71.93 14.11-73.77 16.23-2.76 4.13-7.28 6.52-12.05 6.35z" fill="#B9C8F9" p-id="14867"></path></svg>