<?xml version="1.0" standalone="no"?><!DOCTYPE svg PUBLIC "-//W3C//DTD SVG 1.1//EN" "http://www.w3.org/Graphics/SVG/1.1/DTD/svg11.dtd"><svg t="1755919611743" class="icon" viewBox="0 0 1027 1024" version="1.1" xmlns="http://www.w3.org/2000/svg" p-id="38569" xmlns:xlink="http://www.w3.org/1999/xlink" width="16.046875" height="16"><path d="M1013.76 290.133333c-6.826667-3.413333-17.066667-3.413333-27.306667 0l-126.293333 71.68v344.746667l126.293333 71.68c3.413333 3.413333 6.826667 3.413333 13.653334 3.413333 3.413333 0 10.24 0 13.653333-3.413333 6.826667-3.413333 13.653333-13.653333 13.653333-20.48v-443.733333c0-10.24-6.826667-20.48-13.653333-23.893334z m-242.346667-122.88H51.2c-27.306667 0-51.2 23.893333-51.2 51.2v617.813334c0 27.306667 23.893333 51.2 51.2 51.2h720.213333c27.306667 0 51.2-23.893333 51.2-51.2V218.453333c0-27.306667-23.893333-51.2-51.2-51.2z m-242.346666 389.12l-211.626667 122.88c-3.413333 0-6.826667 3.413333-13.653333 3.413334-13.653333 0-27.306667-13.653333-27.306667-30.72v-249.173334c0-17.066667 13.653333-27.306667 27.306667-27.306666 10.24 0 17.066667 3.413333 20.48 10.24l204.8 119.466666c10.24 6.826667 13.653333 13.653333 13.653333 23.893334 3.413333 10.24-3.413333 20.48-13.653333 27.306666z m0 0" fill="#F9574F" p-id="38570"></path></svg>