<?xml version="1.0" standalone="no"?><!DOCTYPE svg PUBLIC "-//W3C//DTD SVG 1.1//EN" "http://www.w3.org/Graphics/SVG/1.1/DTD/svg11.dtd"><svg t="1755852609719" class="icon" viewBox="0 0 1024 1024" version="1.1" xmlns="http://www.w3.org/2000/svg" p-id="27961" xmlns:xlink="http://www.w3.org/1999/xlink" width="256" height="256"><path d="M924.51 368.1L627.17 69.52c-3.38-3.39-7.97-5.3-12.75-5.3H115.76c-9.9 0-18 8.1-18 18v860c0 9.9 8.1 18 18 18h796c9.9 0 18-8.1 18-18V380.8c0-4.76-1.89-9.33-5.25-12.7z m-127.86-37.12H661.92V196.25l134.73 134.73z m69.11 565.24h-704v-768H595.3l2.62 2.63v228.99c0 19.32 15.81 35.13 35.13 35.13h227.9l4.8 4.82v496.43z" fill="#d4237a" p-id="27962"></path><path d="M798.64 512.13h-90c-17.67 0-32 14.33-32 32s14.33 32 32 32h12.19l-82.47 145.1-88.5-112.31c-8.7-11.04-21.75-17.37-35.81-17.37-14.06 0-27.11 6.33-35.81 17.37l-88.59 112.43-83.15-145.22h12.38c17.67 0 32-14.33 32-32s-14.33-32-32-32h-90c-17.67 0-32 14.33-32 32s14.33 32 32 32h14.04l105.92 184.96a45.523 45.523 0 0 0 39.58 22.93c13.91 0 27.1-6.34 35.79-17.37l89.85-114.03 89.79 113.95a45.524 45.524 0 0 0 39.24 17.24 45.511 45.511 0 0 0 36.2-22.93L784.3 576.13h14.35c17.67 0 32-14.33 32-32-0.01-17.68-14.33-32-32.01-32z" fill="#d4237a" p-id="27963"></path></svg>