<?xml version="1.0" standalone="no"?><!DOCTYPE svg PUBLIC "-//W3C//DTD SVG 1.1//EN" "http://www.w3.org/Graphics/SVG/1.1/DTD/svg11.dtd"><svg t="1755919562362" class="icon" viewBox="0 0 1024 1024" version="1.1" xmlns="http://www.w3.org/2000/svg" p-id="36689" xmlns:xlink="http://www.w3.org/1999/xlink" width="16" height="16"><path d="M51.2 51.2m102.4 0l716.8 0q102.4 0 102.4 102.4l0 716.8q0 102.4-102.4 102.4l-716.8 0q-102.4 0-102.4-102.4l0-716.8q0-102.4 102.4-102.4Z" fill="#9766D0" p-id="36690"></path><path d="M648.704 266.24c25.7024 0 40.8576 19.8144 35.4304 44.032-2.6112 11.9808-9.8816 25.6-22.0672 43.52l-8.704 12.3904c-3.1232 4.352-6.5536 9.0112-10.3424 13.9776l-25.088 32.4608c-11.4176 14.336-34.0992 42.9568-41.472 52.3776l-16.6912 21.5552-7.5776 9.984c-34.2016 45.4144-56.4224 80.2304-67.1744 107.008-9.728 24.4224-8.448 33.2288 0.2048 37.0176-0.256-0.1024-0.1536-0.4096 0.6656-1.28l50.4832-45.9264c83.2-72.9088 129.6896-102.4 175.9744-91.0848 28.5184 7.0144 40.704 29.184 32.768 55.3472-1.6896 5.5296-4.096 11.0592-7.5264 17.5616l-3.7376 6.8096c-2.4064 4.352-11.8784 20.2752-13.7216 23.4496-17.5104 30.3616-23.7568 50.688-19.1488 69.4272 3.1744 12.9536 12.1856 23.4496 31.1808 31.8976a25.6 25.6 0 1 1-20.7872 46.7968c-33.28-14.7968-53.0944-37.9392-60.1088-66.4576-7.936-32.256-0.512-61.0816 18.944-97.1776l9.5232-16.7936 12.4928-21.7088-3.7888 0.512c-20.5824 3.5328-52.6336 24.32-98.048 62.464l-20.2752 17.408-27.5456 25.6c-8.2944 7.68-14.4896 13.056-20.5312 17.664-19.6608 14.8992-37.888 20.8896-57.344 12.3904-40.0384-17.5616-45.9264-56.1664-27.1872-102.912 11.6736-29.2352 32.768-63.1808 64.1024-105.7792l17.4592-23.2448 28.672-36.7616 35.4816-44.9024 18.688-24.1664c3.584-4.7616 6.8096-9.1136 9.728-13.2096l12.0832-17.5616-8.4992 1.1264c-131.584 19.968-276.3264 151.6544-325.7344 288.6144l-3.9936 11.7248a25.6 25.6 0 0 1-48.7424-15.5648C291.84 432.2816 481.1264 266.24 648.704 266.24z" fill="#FFFFFF" p-id="36691"></path></svg>