<?xml version="1.0" standalone="no"?><!DOCTYPE svg PUBLIC "-//W3C//DTD SVG 1.1//EN" "http://www.w3.org/Graphics/SVG/1.1/DTD/svg11.dtd"><svg t="1755843894863" class="icon" viewBox="0 0 1024 1024" version="1.1" xmlns="http://www.w3.org/2000/svg" p-id="10995" xmlns:xlink="http://www.w3.org/1999/xlink" width="256" height="256"><path d="M1005.714286 1005.714286H18.285714V18.285714h712.594286L877.714286 164.571429l128 128v713.142857z" fill="#14386C" p-id="10996"></path><path d="M1024 1024H0V0h738.377143L1024 285.074286zM36.571429 987.428571h950.857142V300.068571L723.382857 36.571429H36.571429z" fill="#AAEFFF" p-id="10997"></path><path d="M731.428571 0v292.571429h292.571429L731.428571 0z" fill="#AAEFFF" p-id="10998"></path><path d="M196.022857 791.588571v44.982858H150.125714v-44.982858zM301.897143 713.142857a30.171429 30.171429 0 0 0-16.64 4.388572 39.497143 39.497143 0 0 0-10.971429 11.702857 57.417143 57.417143 0 0 0-6.034285 15.908571 87.771429 87.771429 0 0 0 0 33.828572 51.565714 51.565714 0 0 0 5.851428 15.36 32.548571 32.548571 0 0 0 10.605714 11.154285 29.44 29.44 0 0 0 16.457143 4.388572 30.354286 30.354286 0 0 0 22.857143-8.228572 38.948571 38.948571 0 0 0 10.057143-22.491428h40.228571a68.571429 68.571429 0 0 1-23.405714 45.897143 75.702857 75.702857 0 0 1-49.554286 15.908571 85.394286 85.394286 0 0 1-31.085714-5.668571 67.474286 67.474286 0 0 1-24.137143-16.091429 71.131429 71.131429 0 0 1-15.542857-24.32 86.491429 86.491429 0 0 1-5.485714-31.268571 98.742857 98.742857 0 0 1 5.12-32.182858 71.68 71.68 0 0 1 14.994286-25.965714 68.388571 68.388571 0 0 1 24.32-17.188571 83.565714 83.565714 0 0 1 32.731428-6.217143 94.72 94.72 0 0 1 25.965714 3.657143 66.925714 66.925714 0 0 1 22.125715 10.605714 56.137143 56.137143 0 0 1 23.04 43.154286h-40.777143A27.794286 27.794286 0 0 0 301.897143 713.142857zM432.64 798.902857a25.234286 25.234286 0 0 0 7.131429 8.045714 29.44 29.44 0 0 0 10.057142 4.388572 43.154286 43.154286 0 0 0 11.885715 1.462857 39.862857 39.862857 0 0 0 9.142857-0.914286 31.268571 31.268571 0 0 0 8.777143-3.291428 17.005714 17.005714 0 0 0 6.582857-5.851429 14.628571 14.628571 0 0 0 2.742857-9.142857c0-6.217143-4.205714-10.971429-12.434286-14.08a256 256 0 0 0-34.742857-9.325714c-6.034286-1.462857-11.885714-2.925714-18.285714-4.937143a59.611429 59.611429 0 0 1-15.36-7.314286 35.474286 35.474286 0 0 1-10.788572-11.337143 32.365714 32.365714 0 0 1-4.022857-16.822857 45.165714 45.165714 0 0 1 5.668572-23.954286 42.971429 42.971429 0 0 1 14.994285-14.811428 65.097143 65.097143 0 0 1 21.211429-7.68 128 128 0 0 1 23.954286-2.194286 126.171429 126.171429 0 0 1 23.771428 2.377143 66.56 66.56 0 0 1 20.662857 7.862857 50.285714 50.285714 0 0 1 14.994286 14.811429 51.2 51.2 0 0 1 7.314286 23.222857h-38.948572a18.285714 18.285714 0 0 0-9.142857-16.091429 40.411429 40.411429 0 0 0-19.382857-4.388571h-7.497143a23.771429 23.771429 0 0 0-7.497143 1.828571 16.457143 16.457143 0 0 0-5.668571 4.205715 11.154286 11.154286 0 0 0-2.377143 7.497142 11.337143 11.337143 0 0 0 3.474286 8.96 31.634286 31.634286 0 0 0 10.788571 5.668572c4.388571 1.462857 9.325714 2.742857 14.994286 4.022857l17.371429 3.657143a177.371429 177.371429 0 0 1 18.285714 5.12 50.468571 50.468571 0 0 1 15.36 7.68 38.4 38.4 0 0 1 10.971428 12.068571 34.56 34.56 0 0 1 4.022858 18.285715 47.908571 47.908571 0 0 1-6.034286 25.051428 47.36 47.36 0 0 1-15.542857 16.274286 67.291429 67.291429 0 0 1-22.125715 8.594286 131.657143 131.657143 0 0 1-25.417142 2.56 118.125714 118.125714 0 0 1-25.6-2.742858 64.182857 64.182857 0 0 1-22.491429-8.777142 50.102857 50.102857 0 0 1-16.091429-16.091429 50.651429 50.651429 0 0 1-6.765714-25.417143h39.497143a22.308571 22.308571 0 0 0 2.56 11.52zM589.714286 798.902857a25.234286 25.234286 0 0 0 7.131428 8.045714 31.085714 31.085714 0 0 0 10.057143 4.388572 43.154286 43.154286 0 0 0 11.885714 1.462857 42.422857 42.422857 0 0 0 9.325715-0.914286 36.571429 36.571429 0 0 0 8.777143-3.291428 20.114286 20.114286 0 0 0 6.582857-5.851429 15.908571 15.908571 0 0 0 2.56-9.142857c0-6.217143-4.205714-10.971429-12.434286-14.08a248.685714 248.685714 0 0 0-34.742857-9.325714 176.822857 176.822857 0 0 1-18.285714-4.937143 54.857143 54.857143 0 0 1-15.36-7.314286 34.194286 34.194286 0 0 1-10.971429-11.337143 32.365714 32.365714 0 0 1-4.022857-16.822857 45.165714 45.165714 0 0 1 5.668571-23.954286 42.057143 42.057143 0 0 1 15.177143-14.811428 64 64 0 0 1 21.028572-7.68 128 128 0 0 1 23.954285-2.194286 126.171429 126.171429 0 0 1 23.771429 2.377143 64.731429 64.731429 0 0 1 20.662857 7.862857 51.017143 51.017143 0 0 1 15.177143 14.811429 53.577143 53.577143 0 0 1 7.131428 23.222857h-38.765714a18.285714 18.285714 0 0 0-9.142857-16.091429 40.228571 40.228571 0 0 0-18.285714-4.388571h-7.68a23.771429 23.771429 0 0 0-7.497143 1.828571 18.285714 18.285714 0 0 0-5.668572 4.205715 11.154286 11.154286 0 0 0-2.377142 7.497142 11.52 11.52 0 0 0 4.205714 9.142858 29.074286 29.074286 0 0 0 10.605714 5.668571c4.388571 1.462857 9.325714 2.742857 14.994286 4.022857l17.371428 3.657143c6.034286 1.462857 11.885714 3.108571 18.285715 5.12a54.857143 54.857143 0 0 1 15.36 7.68 40.045714 40.045714 0 0 1 10.788571 12.068571 34.56 34.56 0 0 1 4.022857 18.285715 47.908571 47.908571 0 0 1-6.034285 25.051428 47.36 47.36 0 0 1-15.542858 16.274286 65.828571 65.828571 0 0 1-22.125714 8.594286 129.828571 129.828571 0 0 1-25.234286 2.56 121.051429 121.051429 0 0 1-25.782857-2.742857 64.182857 64.182857 0 0 1-22.491428-8.777143 51.931429 51.931429 0 0 1-16.091429-16.091429 50.651429 50.651429 0 0 1-6.765714-25.417143h38.034286a22.308571 22.308571 0 0 0 2.742857 11.337143z" fill="#FFB000" p-id="10999"></path><path d="M147.748571 342.125714h30.537143v29.622857H147.748571zM283.062857 300.251429h162.377143v23.771428h-162.377143z" fill="#AAEFFF" opacity=".4" p-id="11000"></path></svg>