<?xml version="1.0" standalone="no"?><!DOCTYPE svg PUBLIC "-//W3C//DTD SVG 1.1//EN" "http://www.w3.org/Graphics/SVG/1.1/DTD/svg11.dtd"><svg t="1755739377602" class="icon" viewBox="0 0 1191 1024" version="1.1" xmlns="http://www.w3.org/2000/svg" p-id="4172" xmlns:xlink="http://www.w3.org/1999/xlink" width="297.75" height="256"><path d="M930.323883 1024H77.819029c-39.76699 0-72.07767-59.650485-72.07767-131.728155V161.553398c0-72.07767 32.31068-131.728155 72.07767-131.728155h852.504854c39.76699 0 72.07767 59.650485 72.07767 131.728155v728.23301c0 74.563107-32.31068 134.213592-72.07767 134.213592zM77.819029 96.932039c-19.883495 0-34.796117 29.825243-34.796116 67.106796v728.23301c0 37.281553 14.912621 67.106796 34.796116 67.106796h852.504854c19.883495 0 34.796117-29.825243 34.796117-67.106796V161.553398c0-37.281553-14.912621-67.106796-34.796117-67.106796H77.819029v2.485437z" fill="#040000" p-id="4173"></path><path d="M366.129709 643.728155c-22.368932 19.883495-39.76699 34.796117-59.650486 42.252428-14.912621 7.456311-32.31068 9.941748-47.223301 9.941747-17.398058 0-37.281553-4.970874-57.165048-17.398058-19.883495-12.427184-34.796117-27.339806-39.766991-47.223301l-9.941747-29.825243c49.708738-7.456311 86.990291-14.912621 114.330097-24.854369 24.854369-9.941748 54.679612-22.368932 84.504854-37.281553 29.825243-14.912621 54.679612-27.339806 77.048544-42.252427 22.368932-12.427184 37.281553-27.339806 52.194175-39.766991s19.883495-24.854369 19.883495-34.796116c0-4.970874-2.485437-9.941748-4.970874-14.912622-2.485437-4.970874-9.941748-9.941748-17.398058-12.427184-4.970874-2.485437-12.427184 0-17.398058 0-4.970874 2.485437-17.398058 12.427184-37.281554 32.31068s-34.796117 32.31068-47.223301 37.281553c-17.398058 4.970874-29.825243 7.456311-39.76699 7.456311-12.427184 0-24.854369-2.485437-34.796116-9.941748s-19.883495-14.912621-27.339806-29.825243c-7.456311-14.912621-9.941748-32.31068-7.456311-59.650485l2.485437-32.31068c32.31068 0 57.165049-4.970874 79.53398-9.941747 22.368932-4.970874 44.737864-14.912621 67.106797-29.825243 22.368932-14.912621 42.252427-27.339806 54.679611-39.76699l27.339806-24.854369c14.912621-14.912621 24.854369-27.339806 32.31068-37.281554 7.456311-12.427184 12.427184-17.398058 17.398058-19.883495s9.941748 0 17.398058 4.970874c7.456311 2.485437 9.941748 9.941748 12.427185 17.398058v19.883495c-2.485437 9.941748-2.485437 14.912621 0 19.883496 2.485437 7.456311 9.941748 12.427184 22.368932 12.427184h27.339806c7.456311 0 34.796117-7.456311 82.019417-19.883495 0 9.941748 0 17.398058 2.485437 27.339806 0 9.941748 2.485437 19.883495 7.456311 32.310679 4.970874 12.427184 9.941748 22.368932 17.398058 32.31068l14.912621 19.883495c-12.427184 0-22.368932 2.485437-34.796116 4.970874-9.941748 2.485437-27.339806 7.456311-47.223301 14.912621s-37.281553 17.398058-52.194175 29.825243c-14.912621 9.941748-32.31068 24.854369-54.679612 42.252427-19.883495 17.398058-39.76699 37.281553-54.679611 54.679612 7.456311 2.485437 12.427184 7.456311 17.398058 7.456311 4.970874 2.485437 17.398058 2.485437 37.281553 4.970873s42.252427 0 72.07767-2.485437 52.194175-9.941748 64.621359-17.398058l27.339806-14.912621c4.970874 12.427184 7.456311 22.368932 12.427185 32.310679s12.427184 19.883495 19.883495 29.825243c9.941748 9.941748 24.854369 24.854369 47.223301 44.737864-17.398058 19.883495-29.825243 37.281553-37.281554 52.194175-7.456311 14.912621-14.912621 29.825243-22.368932 49.708738-7.456311 19.883495-14.912621 37.281553-19.883495 57.165048-4.970874 19.883495-9.941748 34.796117-9.941747 44.737864l2.485437 24.854369c-19.883495-2.485437-37.281553-4.970874-54.679612-4.970873-14.912621 0-37.281553 2.485437-59.650486 12.427184-24.854369 9.941748-42.252427 17.398058-54.679611 27.339806l-62.135922 52.194175c-14.912621-14.912621-24.854369-27.339806-32.31068-34.796117l-14.912621-29.825243c-2.485437-9.941748-4.970874-19.883495-4.970874-29.825242v-69.592233V621.359223l2.485437-49.708738c-27.339806 27.339806-49.708738 52.194175-72.07767 72.07767z m186.407767-275.883495c9.941748 0 22.368932-2.485437 37.281553-9.941747s24.854369-14.912621 27.339806-19.883496c2.485437-4.970874 4.970874-9.941748 4.970874-12.427184 0-2.485437 0-4.970874-2.485437-9.941748-4.970874-9.941748-17.398058-14.912621-34.796117-14.912621-19.883495 0-34.796117 4.970874-49.708738 12.427185-14.912621 7.456311-22.368932 14.912621-22.368932 19.883495v7.45631c0 7.456311 4.970874 14.912621 14.912622 19.883496 9.941748 4.970874 17.398058 7.456311 24.854369 7.45631z m32.310679 372.815534c14.912621 2.485437 32.31068-2.485437 47.223301-12.427184 17.398058-9.941748 29.825243-22.368932 37.281554-42.252427 7.456311-19.883495 14.912621-37.281553 14.912621-54.679612s0-29.825243-7.456311-37.281554c-7.456311-7.456311-22.368932-12.427184-44.737864-9.941747-27.339806 0-44.737864 4.970874-54.679611 9.941747s-17.398058 12.427184-22.368932 19.883496c-4.970874 7.456311-7.456311 17.398058-9.941748 29.825242-2.485437 12.427184-2.485437 27.339806-4.970874 42.252428 0 14.912621 2.485437 27.339806 12.427185 37.281553s19.883495 17.398058 32.310679 17.398058z" fill="#040000" p-id="4174"></path></svg>