<?xml version="1.0" standalone="no"?><!DOCTYPE svg PUBLIC "-//W3C//DTD SVG 1.1//EN" "http://www.w3.org/Graphics/SVG/1.1/DTD/svg11.dtd"><svg t="1755848475733" class="icon" viewBox="0 0 1024 1024" version="1.1" xmlns="http://www.w3.org/2000/svg" p-id="18614" data-spm-anchor-id="a313x.search_index.0.i19.f0583a815LB3qL" xmlns:xlink="http://www.w3.org/1999/xlink" width="256" height="256"><path d="M135.232 1016.342c-70.713 0-127.904-64.516-127.904-143.178V716.969c0-79.229 57.191-143.746 127.904-143.746h245.41c70.708 0 127.903 64.517 127.903 143.746v156.195c0 79.229-57.195 143.739-127.903 143.739h-245.41v-0.561z m0-359.361c-29.117 0-53.037 26.597-53.037 59.988v156.195c0 32.82 23.92 59.983 53.037 59.983h244.889c29.116 0 53.03-26.597 53.03-59.983V716.969c0-32.825-23.915-59.988-53.03-59.988H135.232zM628.649 998.23c-20.281 0-31.715-17.546-32.236-34.52-0.52-16.411 8.316-36.218 36.395-39.047 26.513-5.095 46.793-9.623 71.228-18.68l1.042-0.566h1.041c9.357 0 41.07-24.896 67.589-59.422l0.52-1.127 1.563-1.133h0.515c14.558-7.924 39.519-53.767 52.515-106.392 0.52-3.395 1.041-6.228 1.561-9.057l0.517-2.828c3.124-18.678 6.243-35.085 6.243-54.332 0-2.262 0-5.656-0.522-11.318-0.521-3.395-0.521-6.222-0.521-9.616l-37.957 50.365c-9.877 11.883-19.233 14.145-25.476 14.145-4.156 0-8.836-1.127-12.997-3.395-9.877-5.656-15.599-13.012-17.676-22.635-2.598-12.451 3.639-23.768 6.238-27.73l0.521-0.567 86.307-116.582c3.119-3.395 20.801-21.502 39.514-21.502 26.518 0 41.076 25.464 44.716 32.259l77.471 121.67s12.48 19.241-9.356 44.143c-7.28 7.922-15.599 12.45-23.4 12.45-9.877 0-16.12-6.228-17.157-7.356l-43.154-62.816v18.674c0 67.344-20.8 132.428-61.877 193.543-41.07 56.027-87.863 92.247-142.977 112.053-2.083 1.134-5.202 2.262-13.523 4.529l-4.16 1.133c-12.475 3.395-23.915 5.656-33.792 7.356h-18.718v-1.699zM164.868 499.09c-29.116 0-43.674-29.43-45.235-33.392L46.842 340.633s-12.475-19.246 9.362-43.576c7.795-7.924 15.594-12.451 23.394-12.451 9.882 0 16.12 6.223 17.161 7.356l43.153 62.25v-8.49c0.52-28.296 3.639-56.588 8.836-83.757 11.96-53.76 39.514-104.125 83.709-154.495 42.638-43.009 92.029-70.739 141.942-79.795 17.681-5.09 35.358-5.09 53.036-5.09 9.877 0 15.599 14.713 16.12 28.858 1.037 19.807-7.799 41.882-36.4 45.276l-2.077 0.567c-20.276 4.528-41.077 9.057-60.831 18.106-38.999 17.547-68.631 44.144-96.189 84.891l-4.681 7.356-2.078-1.701c-6.238 9.623-21.317 39.614-29.116 78.668l-0.52 3.395-0.522 1.695v0.566c-0.52 2.266-5.196 27.73-5.196 56.593v4.528c0 3.395 0.515 7.356 0.515 10.751 0 1.701 0 2.828 0.52 4.529l34.317-45.276c9.878-11.885 19.24-14.145 25.478-14.145 4.68 0 8.84 1.133 12.996 3.395 9.882 5.661 15.599 13.018 17.682 22.073 1.556 8.485-0.522 18.674-6.243 27.731v0.561l-86.308 116.015c-3.639 3.961-21.316 22.073-40.034 22.073z m478.339-46.971c-70.713 0-127.903-64.516-127.903-143.745v-155.63C515.304 73.517 572.494 9 643.207 9h244.889C958.803 9 1016 73.517 1016 152.745v156.196c0 79.229-57.197 143.739-127.904 143.739H643.207v-0.561z m0-359.363c-29.116 0-53.036 26.597-53.036 59.988V308.94c0 32.82 23.92 59.983 53.036 59.983h244.889c29.117 0 53.032-26.597 53.032-59.983V152.745c0-32.824-23.915-59.988-53.032-59.988H643.207z m0 0" p-id="18615" data-spm-anchor-id="a313x.search_index.0.i7.f0583a815LB3qL" class="" fill="#036fff"></path><path d="M708.547 131.62l-95.258 163.072c-9.708 16.603 2.621 37.242 22.242 37.242h190.514c19.62 0 31.95-20.622 22.242-37.242L753.029 131.62c-9.809-16.802-34.672-16.802-44.482 0z m0 0" p-id="18616" data-spm-anchor-id="a313x.search_index.0.i18.f0583a815LB3qL" class="selected" fill="#fb07e8"></path><path d="M844.109 223.286l-50.842 87.038c-5.633 9.636 1.522 21.611 12.906 21.611h101.684c11.383 0 18.536-11.975 12.905-21.611l-50.843-87.038c-5.699-9.752-20.128-9.752-25.81 0z m0 0" p-id="18617" data-spm-anchor-id="a313x.search_index.0.i20.f0583a815LB3qL" class="" fill="#fb07e8"></path><path d="M847.728 293.753l-22.393-38.347-31.747 54.357c-5.75 9.851 1.439 22.154 12.94 22.154h18.909c19.822 0.017 32.203-21.199 22.291-38.164z m0 0" p-id="18618" data-spm-anchor-id="a313x.search_index.0.i23.f0583a815LB3qL" class="" fill="#fb07e8"></path><path d="M830.426 142.097c0 14.674 12.033 26.568 26.876 26.568s26.876-11.895 26.876-26.568c0-14.675-12.033-26.57-26.876-26.57s-26.876 11.894-26.876 26.57z m0 0" p-id="18619" data-spm-anchor-id="a313x.search_index.0.i21.f0583a815LB3qL" class="" fill="#fb07e8"></path><path d="M668.614 295.614c-2.233 0-4.483-0.544-6.564-1.664-6.528-3.542-8.88-11.563-5.242-17.922l31.578-55.246c3.636-6.358 11.873-8.648 18.401-5.107 6.53 3.542 8.88 11.563 5.244 17.922l-31.578 55.246c-2.389 4.185-6.923 6.779-11.839 6.771z m0 0" p-id="18620" data-spm-anchor-id="a313x.search_index.0.i24.f0583a815LB3qL" class="" fill="#fb07e8"></path><path d="M199.818 706.017L104.56 869.089c-9.708 16.603 2.621 37.242 22.242 37.242h190.514c19.62 0 31.95-20.622 22.242-37.242L244.3 706.017c-9.809-16.802-34.671-16.802-44.482 0z m0 0" p-id="18621" data-spm-anchor-id="a313x.search_index.0.i12.f0583a815LB3qL" class="" fill="#ea9518"></path><path d="M335.38 797.683l-50.842 87.038c-5.633 9.636 1.522 21.611 12.906 21.611h101.684c11.383 0 18.536-11.975 12.905-21.611l-50.843-87.038c-5.699-9.752-20.128-9.752-25.81 0z m0 0" p-id="18622" data-spm-anchor-id="a313x.search_index.0.i16.f0583a815LB3qL" class="" fill="#ea9518"></path><path d="M338.999 868.15l-22.393-38.347-31.747 54.357c-5.75 9.851 1.439 22.154 12.94 22.154h18.909c19.822 0.017 32.203-21.199 22.291-38.164z m0 0" p-id="18623" data-spm-anchor-id="a313x.search_index.0.i17.f0583a815LB3qL" class="" fill="#ea9518"></path><path d="M321.697 716.494c0 14.674 12.033 26.568 26.876 26.568 14.843 0 26.876-11.895 26.876-26.568 0-14.675-12.033-26.57-26.876-26.57-14.843-0.001-26.876 11.894-26.876 26.57z m0 0" p-id="18624" data-spm-anchor-id="a313x.search_index.0.i13.f0583a815LB3qL" class="" fill="#ea9518"></path><path d="M159.885 870.011c-2.233 0-4.483-0.544-6.564-1.664-6.528-3.542-8.88-11.563-5.242-17.922l31.578-55.246c3.636-6.358 11.873-8.648 18.401-5.107 6.53 3.542 8.88 11.563 5.244 17.922l-31.578 55.246c-2.389 4.185-6.923 6.779-11.839 6.771z m0 0" p-id="18625" data-spm-anchor-id="a313x.search_index.0.i11.f0583a815LB3qL" class="" fill="#ea9518"></path></svg>