<?xml version="1.0" standalone="no"?><!DOCTYPE svg PUBLIC "-//W3C//DTD SVG 1.1//EN" "http://www.w3.org/Graphics/SVG/1.1/DTD/svg11.dtd"><svg t="1755703263063" class="icon" viewBox="0 0 1024 1024" version="1.1" xmlns="http://www.w3.org/2000/svg" p-id="6091" xmlns:xlink="http://www.w3.org/1999/xlink" width="200" height="200"><path d="M690.604651 71.44186c-6.548837 0-11.906977-5.35814-11.906977-11.906976s5.35814-11.906977 11.906977-11.906977h190.511628c65.726512 0 119.069767 53.343256 119.069768 119.069767v192.178605c0 6.548837-5.35814 11.906977-11.906977 11.906977s-11.906977-5.35814-11.906977-11.906977V166.697674c0-52.509767-42.746047-95.255814-95.255814-95.255814H690.604651m285.767442 615.947907c0-6.548837 5.35814-11.906977 11.906977-11.906976s11.906977 5.35814 11.906977 11.906976V881.116279c0 65.726512-53.343256 119.069767-119.069768 119.069768H694.653023c-6.548837 0-11.906977-5.35814-11.906976-11.906977s5.35814-11.906977 11.906976-11.906977H881.116279c52.509767 0 95.255814-42.746047 95.255814-95.255814V687.389767M356.733023 976.372093c6.548837 0 11.906977 5.35814 11.906977 11.906977s-5.35814 11.906977-11.906977 11.906977H166.697674C100.971163 1000.186047 47.627907 946.842791 47.627907 881.116279V690.604651c0-6.548837 5.35814-11.906977 11.906977-11.906977s11.906977 5.35814 11.906976 11.906977v190.511628c0 52.509767 42.746047 95.255814 95.255814 95.255814h190.035349M71.44186 356.971163c0 6.548837-5.35814 11.906977-11.906976 11.906977s-11.906977-5.35814-11.906977-11.906977V166.697674C47.627907 100.971163 100.971163 47.627907 166.697674 47.627907h190.511628c6.548837 0 11.906977 5.35814 11.906977 11.906977s-5.35814 11.906977-11.906977 11.906976H166.697674c-52.509767 0-95.255814 42.746047-95.255814 95.255814v190.273489" fill="#2C96FF" p-id="6092"></path><path d="M825.867907 845.395349H706.32186c-17.384186 0-31.434419-13.931163-31.434418-31.077209v-113.949768c0-17.146047 14.050233-31.077209 31.434418-31.077209h119.546047c17.384186 0 31.434419 14.288372 31.434419 31.077209v113.949768c0 17.146047-14.050233 31.077209-31.434419 31.077209z m-5.23907-130.143256a9.882791 9.882791 0 0 0-9.763721-9.763721h-89.421395c-5.23907 0-9.763721 4.167442-9.763721 9.763721v84.182326c0 5.12 4.286512 9.763721 9.763721 9.763721h89.421395c5.23907 0 9.763721-4.167442 9.763721-9.763721v-84.182326z m5.23907-311.843721H681.19814c-17.384186 0-31.434419-13.931163-31.434419-31.077209V233.495814c0-17.146047 14.050233-31.077209 31.434419-31.077209h144.788837c17.384186 0 31.434419 13.931163 31.434418 31.077209v138.835349a31.434419 31.434419 0 0 1-31.553488 31.077209z m-5.23907-155.028837c0-5.23907-4.286512-9.763721-9.763721-9.763721h-114.545116c-5.23907 0-9.763721 4.167442-9.763721 9.763721v109.067907c0 5.12 4.286512 9.763721 9.763721 9.763721h114.545116c5.23907 0 9.763721-4.167442 9.763721-9.763721v-109.067907zM748.591628 627.497674h-47.508837c-10.47814 0-19.289302-8.692093-19.289303-19.051162 0-10.35907 8.811163-19.051163 19.289303-19.051163h47.508837c10.47814 0 19.289302 8.692093 19.289302 19.051163 0 10.24-8.811163 19.051163-19.289302 19.051162z m-1.666977-84.896744c-11.192558 0-20.003721-9.049302-20.003721-19.765581V491.75814h-31.434418c-11.192558 0-20.003721-9.049302-20.003721-19.765582 0-10.954419 9.168372-19.765581 20.003721-19.765581h51.438139c10.835349 0 20.003721 9.049302 20.003721 19.765581v50.842791c0 11.073488-9.168372 19.765581-20.003721 19.765581z m38.697675 3.929303h51.438139c10.835349 0 20.003721 9.049302 20.003721 19.765581v50.842791c0 10.954419-9.168372 19.765581-20.003721 19.765581-11.073488 0-20.003721-9.049302-20.003721-19.765581v-31.07721h-31.434418c-11.073488 0-20.003721-9.049302-20.003721-19.765581 0-11.073488 9.168372-19.765581 20.003721-19.765581z m-102.51907-22.027907c0 10.716279-8.573023 19.051163-19.289303 19.051162h-47.508837c-10.47814 0-19.289302-8.692093-19.289302-19.051162 0-10.35907 8.811163-19.051163 19.289302-19.051163h47.508837c10.47814 0 19.289302 8.692093 19.289303 19.051163z m-96.922791-56.915349c-11.073488 0-20.003721-9.049302-20.003721-19.765582V416.744186h-31.434418c-11.073488 0-20.003721-9.049302-20.003721-19.765581 0-10.954419 9.168372-19.765581 20.003721-19.765582h51.438139c11.192558 0 20.003721 9.049302 20.003721 19.765582v50.84279c0 10.954419-9.168372 19.765581-20.003721 19.765582z m6.548837-170.031628h-21.313488c-6.906047 0-12.740465-5.477209-12.740465-12.621396v-21.075348c0-6.786977 5.596279-12.621395 12.740465-12.621396h21.313488c6.906047 0 12.740465 5.477209 12.740465 12.621396v21.075348c0 7.144186-5.834419 12.621395-12.740465 12.621396z m-38.340465-3.214884c6.906047 0 12.740465 5.477209 12.740465 12.621395v21.075349c0 6.786977-5.596279 12.621395-12.740465 12.621396h-21.313488c-6.906047 0-12.740465-5.477209-12.740465-12.621396v-21.075349c0-6.786977 5.596279-12.621395 12.740465-12.621395h21.313488z m-14.050232-52.152558h-31.434419v31.077209c0 10.716279-8.811163 19.765581-20.003721 19.765582-10.835349 0-20.003721-8.692093-20.003721-19.765582v-51.2c0-10.716279 9.168372-19.408372 20.003721-19.408372h51.43814c10.835349 0 20.003721 8.692093 20.003721 19.765582 0 10.716279-8.811163 19.765581-20.003721 19.765581z m-60.844652 279.099535c0-10.954419 9.168372-19.765581 20.003721-19.765582 11.192558 0 20.003721 9.049302 20.003721 19.765582v50.485581c0 10.954419-9.168372 19.765581-20.003721 20.003721h-51.438139c-11.192558 0-20.003721-9.049302-20.003721-19.765581 0-10.954419 9.168372-19.765581 20.003721-19.765582h31.434418v-30.958139zM374.355349 845.395349h-140.502326C216.468837 845.395349 202.418605 831.464186 202.418605 814.31814V675.363721c0-17.146047 14.050233-31.077209 31.434418-31.077209h140.502326c17.384186 0 31.434419 13.931163 31.434418 31.077209v138.835349c0 17.265116-14.050233 31.196279-31.434418 31.196279zM369.116279 690.247442c0-5.23907-4.286512-9.763721-9.763721-9.763721H248.855814c-5.23907 0-9.763721 4.167442-9.763721 9.763721v109.067907c0 5.12 4.286512 9.763721 9.763721 9.763721h110.377674c5.23907 0 9.763721-4.167442 9.763721-9.763721v-109.067907H369.116279z m-36.673488-191.583256c-10.47814 0-19.289302-8.692093-19.289303-19.051163 0-10.35907 8.811163-19.051163 19.289303-19.051163h47.508837c10.47814 0 19.289302 8.692093 19.289302 19.051163 0.357209 10.716279-8.573023 19.051163-18.932093 19.051163h-47.866046zM369.116279 632.617674c-11.192558 0-20.003721-9.049302-20.003721-19.765581v-31.077209h-31.434418c-11.192558 0-20.003721-9.049302-20.003721-19.765582 0-11.073488 9.168372-19.765581 20.003721-19.765581H369.116279c10.835349 0 20.003721 9.049302 20.003721 19.765581v50.842791c0 11.073488-9.287442 19.765581-20.003721 19.765581zM243.021395 474.373953v31.07721h31.434419c11.073488 0 20.003721 9.049302 20.003721 19.765581 0 10.954419-9.168372 19.765581-20.003721 19.765582h-51.43814c-11.192558 0-20.003721-9.049302-20.003721-19.765582v-50.842791c0-10.954419 9.168372-19.765581 20.003721-19.765581 11.192558 0 20.003721 9.049302 20.003721 19.765581z m131.333954-70.965581h-140.502326c-17.384186 0-31.434419-13.931163-31.434418-31.077209V233.495814c0-17.146047 14.050233-31.077209 31.434418-31.077209h140.502326c17.384186 0 31.434419 13.931163 31.434418 31.077209v138.835349c0 17.146047-14.050233 31.077209-31.434418 31.077209zM369.116279 248.379535c0-5.23907-4.286512-9.763721-9.763721-9.763721H248.855814c-5.23907 0-9.763721 4.167442-9.763721 9.763721v109.067907c0 5.12 4.286512 9.763721 9.763721 9.763721h110.377674c5.23907 0 9.763721-4.167442 9.763721-9.763721v-109.067907H369.116279z m164.673488 339.944186h51.43814c10.835349 0 20.003721 8.692093 20.003721 19.765581 0 10.716279-8.811163 19.765581-20.003721 19.765582h-31.434419v31.077209c0 10.716279-8.811163 19.765581-20.003721 19.765581-10.835349 0-20.003721-8.692093-20.00372-19.765581v-50.842791c0-10.716279 8.811163-19.765581 20.00372-19.765581z m-0.714418 178.009302h37.387907v-31.077209c0-10.954419 9.168372-19.765581 20.003721-19.765581 11.073488 0 20.003721 9.049302 19.646511 19.765581v50.842791c0 10.954419-9.168372 19.765581-20.003721 19.765581h-35.36372v21.075349c0 10.35907-8.573023 18.455814-18.693954 18.455814h-2.976744c-10.47814 0-18.693953-8.453953-18.693954-18.455814v-42.031628c0.11907-10.47814 8.573023-18.574884 18.693954-18.574884z m311.486511-269.693023h-21.313488c-6.906047 0-12.740465-5.477209-12.740465-12.621395v-21.075349c0-6.786977 5.596279-12.621395 12.740465-12.621396h21.313488c6.906047 0 12.740465 5.477209 12.740466 12.621396v21.075349c0 6.786977-5.596279 12.621395-12.740466 12.621395z m-79.538604-169.555349h-21.313489c-6.906047 0-12.740465-5.477209-12.740465-12.621395v-21.075349c0-6.786977 5.596279-12.621395 12.740465-12.621395h21.313489c6.906047 0 12.740465 5.477209 12.740465 12.621395v21.075349c-0.357209 6.786977-5.953488 12.621395-12.740465 12.621395zM637.261395 714.299535h-21.313488c-6.906047 0-12.740465-5.477209-12.740465-12.621395v-21.075349c0-6.786977 5.596279-12.621395 12.740465-12.621396h21.313488c6.906047 0 12.740465 5.477209 12.740465 12.621396v21.075349c-0.23814 7.025116-5.834419 12.621395-12.740465 12.621395zM505.927442 469.492093H484.613953c-6.906047 0-12.740465-5.477209-12.740465-12.621395V435.795349c0-6.786977 5.596279-12.621395 12.740465-12.621396h21.313489c6.906047 0 12.740465 5.477209 12.740465 12.621396v21.075349c-0.23814 6.786977-5.834419 12.621395-12.740465 12.621395z m-47.746977-46.31814h-21.313488c-6.906047 0-12.740465-5.477209-12.740465-12.621395v-21.075349c0-6.786977 5.596279-12.621395 12.740465-12.621395h21.313488c6.906047 0 12.740465 5.477209 12.740465 12.621395v21.075349c0 7.144186-5.834419 12.621395-12.740465 12.621395z m-22.027907 91.921861v21.075349c-0.357209 7.144186-5.834419 12.621395-13.097674 12.621395h-20.956279c-6.906047 0-12.740465-5.477209-12.740465-12.621395v-21.075349c0-6.786977 5.596279-12.621395 12.740465-12.621395h21.313488c6.906047 0 12.740465 5.477209 12.740465 12.621395zM316.011163 763.713488h-21.313489c-6.906047 0-12.740465-5.477209-12.740465-12.621395v-21.075349c0-6.786977 5.596279-12.621395 12.740465-12.621395h21.313489c6.906047 0 12.740465 5.477209 12.740465 12.621395v21.075349c0 7.144186-5.834419 12.621395-12.740465 12.621395z m0-436.628837h-21.313489c-6.906047 0-12.740465-5.477209-12.740465-12.621395v-21.075349c0-6.786977 5.596279-12.621395 12.740465-12.621395h21.313489c6.906047 0 12.740465 5.477209 12.740465 12.621395v21.075349c0 6.786977-5.834419 12.621395-12.740465 12.621395z m-5.834419 102.28093v21.075349c0 7.144186-5.953488 12.621395-12.740465 12.621396h-21.313488c-6.906047 0-12.740465-5.477209-12.740465-12.621396v-21.075349c0-6.786977 5.596279-12.621395 12.740465-12.621395h21.313488c6.786977 0 12.740465 5.477209 12.740465 12.621395z m-73.346977 197.179535h-20.956279c-6.906047 0-12.740465-5.477209-12.740465-12.621395v-21.075349c0-6.786977 5.596279-12.621395 12.740465-12.621395h21.313489c6.906047 0 12.740465 5.477209 12.740465 12.621395v21.075349c-0.357209 6.786977-5.953488 12.621395-13.097675 12.621395z m197.417675 171.817675h21.313488c6.906047 0 12.740465 5.477209 12.740465 12.621395v21.075349c0 6.786977-5.953488 12.621395-12.740465 12.621395h-21.313488c-6.906047 0-12.740465-5.477209-12.740465-12.621395v-21.075349c0-6.786977 5.477209-12.621395 12.740465-12.621395z m16.431628-121.689303c-6.906047 0-12.740465-5.477209-12.740465-12.621395V642.976744c0-6.786977 5.596279-12.621395 12.740465-12.621395h21.313488c6.906047 0 12.740465 5.477209 12.740465 12.621395v21.075349c0 6.786977-5.596279 12.621395-12.740465 12.621395h-21.313488z m15.598139 56.32c0-6.786977 5.596279-12.621395 12.740465-12.621395h21.313489c6.906047 0 12.740465 5.477209 12.740465 12.621395v21.075349c0 6.786977-5.596279 12.621395-12.740465 12.621396h-21.313489c-6.906047 0-12.740465-5.477209-12.740465-12.621396v-21.075349z" fill="#2C96FF" p-id="6093"></path></svg>